<svg xmlns="http://www.w3.org/2000/svg" width="39" height="39" viewBox="0 0 39 39">
    <g fill="#FF4F67" fill-rule="evenodd">
        <path d="M27.565 29.63a.847.847 0 0 0-1.197 0l-6.199 6.2V10.622a.847.847 0 0 0-1.693 0V35.83l-6.2-6.2a.847.847 0 0 0-1.197 1.197l7.645 7.644a.844.844 0 0 0 1.197 0l7.644-7.644a.847.847 0 0 0 0-1.197"/>
        <path d="M30.206 26.706h-5.161a.846.846 0 0 1 0-1.693h5.16a6.754 6.754 0 0 0 6.748-6.746 6.755 6.755 0 0 0-6.747-6.747h-1.547a.846.846 0 0 1-.845-.888l.01-.175c.006-.09.012-.175.012-.251 0-4.694-3.82-8.513-8.513-8.513-4.695 0-8.514 3.819-8.514 8.513 0 .076.006.16.012.25.004.06.008.118.01.176a.845.845 0 0 1-.845.888H8.439a6.754 6.754 0 0 0-6.746 6.747 6.753 6.753 0 0 0 6.746 6.746H13.6a.847.847 0 0 1 0 1.693H8.439c-4.653 0-8.44-3.786-8.44-8.44 0-4.653 3.787-8.438 8.44-8.438h.685C9.323 4.375 13.822 0 19.323 0c5.5 0 9.999 4.375 10.199 9.828h.684c4.653 0 8.439 3.785 8.439 8.439 0 4.653-3.786 8.439-8.44 8.439"/>
    </g>
</svg>
